<svg viewBox="0 0 128 128" xmlns="http://www.w3.org/2000/svg" xmlns:xlink="http://www.w3.org/1999/xlink"><circle cx="64" cy="64" fill="#F54F33" r="64"/><defs><circle cx="64" cy="64" id="a" r="64"/></defs><clipPath id="b"><use overflow="visible" xlink:href="#a"/></clipPath><path clip-path="url(#b)" fill="#DD2C24" d="M20.16 96.12L52.037 128H128V52.536l-19.885-19.914"/><path d="M104.944 96.947H23.056c-2.21 0-4-1.79-4-4V35.053c0-2.21 1.79-4 4-4h81.888c2.21 0 4 1.79 4 4v57.894c0 2.21-1.79 4-4 4z" fill="#FFF"/><path d="M108.944 42.054v-7c0-2.21-1.79-4-4-4H23.056c-2.21 0-4 1.79-4 4v7h89.888z" fill="#E1E3E9"/><circle cx="25" cy="36.553" fill="#F24B45" r="3"/><circle cx="34" cy="36.553" fill="#FFB202" r="3"/><circle cx="43.001" cy="36.553" fill="#4CBB41" r="3"/><g><defs><path d="M104.944 96.947H23.056c-2.21 0-4-1.79-4-4V35.053c0-2.21 1.79-4 4-4h81.888c2.21 0 4 1.79 4 4v57.894c0 2.21-1.79 4-4 4z" id="c"/></defs><clipPath id="d"><use overflow="visible" xlink:href="#c"/></clipPath><path clip-path="url(#d)" fill="#E1E3E9" opacity=".8" d="M30.866 70.855L57.438 97.5H110V79.563l-12.866-12.9L84.47 63.72 71.794 51.055l-7.42 16.132-10.9-10.888-21.538 12.53"/></g><g fill="#53899F"><path d="M30.866 66.804L53.476 56.3v4.993l-17.1 7.49v.094l17.1 7.49v4.992l-22.61-10.505v-4.05zM56.958 85.206l10.08-34.15h4.758l-10.08 34.15h-4.758zM97.134 70.997L74.524 81.36v-4.994L92 68.876v-.093l-17.476-7.49V56.3l22.61 10.363v4.334z"/></g></svg>